<?xml version="1.0" encoding="UTF-8" standalone="no"?>
<!-- Generator: Adobe Illustrator 18.0.0, SVG Export Plug-In . SVG Version: 6.00 Build 0)  -->

<svg
   version="1.1"
   id="Calque_1"
   x="0px"
   y="0px"
   viewBox="0 0 600 600"
   enable-background="new 0 0 595 842"
   xml:space="preserve"
   sodipodi:docname="logo.svg"
   inkscape:version="1.3.2 (091e20ef0f, 2023-11-25)"
   width="600"
   height="600"
   xmlns:inkscape="http://www.inkscape.org/namespaces/inkscape"
   xmlns:sodipodi="http://sodipodi.sourceforge.net/DTD/sodipodi-0.dtd"
   xmlns:xlink="http://www.w3.org/1999/xlink"
   xmlns="http://www.w3.org/2000/svg"
   xmlns:svg="http://www.w3.org/2000/svg"><defs
   id="defs20"><linearGradient
     id="swatch22"
     inkscape:swatch="solid"><stop
       style="stop-color:#ffffff;stop-opacity:1;"
       offset="0"
       id="stop22" /></linearGradient><linearGradient
     inkscape:collect="always"
     xlink:href="#swatch22"
     id="linearGradient22"
     x1="282"
     y1="382.26065"
     x2="831.77454"
     y2="382.26065"
     gradientUnits="userSpaceOnUse"
     gradientTransform="translate(-258,-86)" /></defs><sodipodi:namedview
   id="namedview20"
   pagecolor="#ffffff"
   bordercolor="#cccccc"
   borderopacity="1"
   inkscape:showpageshadow="0"
   inkscape:pageopacity="1"
   inkscape:pagecheckerboard="0"
   inkscape:deskcolor="#d1d1d1"
   inkscape:zoom="1.04038"
   inkscape:cx="297.00686"
   inkscape:cy="420.03883"
   inkscape:window-width="1920"
   inkscape:window-height="1080"
   inkscape:window-x="0"
   inkscape:window-y="0"
   inkscape:window-maximized="0"
   inkscape:current-layer="Calque_1" />
<ellipse
   fill="none"
   stroke="#cd1719"
   stroke-width="8.30475"
   cx="298.88727"
   cy="296.26065"
   rx="270.73489"
   ry="259.10828"
   id="ellipse20-3"
   style="fill:url(#linearGradient22)" /><g
   id="g3"
   transform="matrix(4.1523759,0,0,4.1523759,-714.89297,-1475.1267)">
	<ellipse
   fill="#cd1719"
   cx="244.7"
   cy="409.89999"
   rx="42.200001"
   ry="39.299999"
   id="ellipse1" />
	<path
   fill="#ffffff"
   d="m 250.2,407.6 c 1.5,-1.4 2.5,-4.3 1.9,-5.3 -1.4,-2.2 -7.6,2.4 -7.6,2.4 0,0 -0.7,1.3 -2,0.1 -1.2,-1 1.7,-8.4 3.8,-11.5 2.1,-3 5.7,-7.5 7.7,-6 1.2,0.9 1.1,2.2 -0.4,3.4 -1,0.8 -1.9,2.2 -3,3.9 -1.4,2.2 -1.7,4.5 -0.5,5.1 0.9,0.4 1.4,0.1 2.6,-1.7 0.9,-1.3 2.3,-3.1 3.3,-4.3 1,-1.1 1.2,-1.4 1.2,-1.4 0,0 0.7,-0.9 1.8,-2 0.5,-0.5 1.7,-4 0.5,-6.2 -1.3,-2.4 -5.1,-1.5 -7.3,-0.5 -2.9,1.3 -3.8,3.1 -5,3.3 -1.4,0.2 0.3,-4.4 0.3,-4.4 0,0 1.6,-4.9 -2.1,-3.2 -0.7,0.3 -3.3,1.1 -2.9,2.6 0.1,0.4 1.1,2.5 0.9,3.2 -0.2,0.7 -0.1,2.4 -1.2,3.8 -0.5,0.7 -0.1,2 -3.1,3.5 -1.3,0.6 -3.6,2.2 -6.3,3.7 -0.9,0.5 -4.3,1.9 -4.3,1.9 0,0 -3.4,1.4 -4,1.4 -0.6,0 -1,0.2 -0.9,0.8 0.1,0.6 0.6,1.1 2,2.1 1.5,1.1 1.9,2.3 4.9,1.8 1.8,-0.3 2.1,-0.5 2.7,-1.6 2.4,-3.9 4.4,-5.9 6,-5.3 0.6,0.2 -1.1,5 -1.1,5.6 0,0.7 -0.5,1.4 -0.5,1.4 l -0.1,1.2 -0.2,1.3 0.3,1.8 c 0,0 1.3,2.4 2.1,2.5 0.9,0.1 3.1,-1.8 3.1,-1.8 l 0.2,-0.8 c 0,0 1.1,-0.1 1.4,0.4 0.2,0.4 -0.7,0.9 -2,2.4 -0.9,1 -1.3,1.9 -2.7,3.1 -0.4,0.4 -1.2,1 -1.2,1 0,0 -0.5,1.3 -0.2,1.4 1.7,0.5 3.5,-2.3 8.1,-4.8 z"
   id="path1" />
	<path
   fill="#ffffff"
   d="m 242.3,425.6 c -0.3,-1.2 -2.9,0.2 -2.9,0.2 l -2.5,2.2 c 0,0 -0.1,1.7 -2.8,2.5 -0.5,0.1 -1.2,1.1 -2.1,1.7 -0.9,0.6 -2.2,1 -2.2,0.9 l -0.3,0.1 c -0.7,0.1 -3,-0.6 -3.4,-1 -0.8,-0.7 -3,-2.7 -4.7,-1.2 -2.6,2.4 2.4,5.4 2.4,5.4 l 2.6,1.6 c 0,0 2.2,1.6 3.9,0.9 0,0 6.8,-6.4 7.4,-6.9 1,-0.8 1.4,-1.5 1.4,-1.5 0,0 3.9,-1.9 3.2,-4.9 z"
   id="path2" />
	<path
   fill="#ffffff"
   d="m 262.6,420.8 c 0,0 -3.2,-1.8 -4.6,-0.4 -1.4,1.5 0.9,1.8 0.9,1.8 l 1.4,1 2.3,2.3 c 0,0 1.4,1.2 1.5,1.6 0.1,0.4 -0.3,2.3 0.7,2.6 0.7,0.2 4.9,1.2 5.5,0.2 0.6,-1 -0.2,-3.5 -1.1,-4.1 -0.6,-0.4 -1.7,-1.5 -1.7,-1.5 l -1.6,-1.6 -1.6,-1.1 z"
   id="path3" />
</g>
<g
   id="g20"
   transform="matrix(4.1523759,0,0,4.1523759,-714.89297,-1475.1267)">
	<path
   d="m 265.3,455.3 c 0.1,0 0.1,0.1 0.1,0.1 0,0 0.2,0.1 0.3,0.2 0,0 0.2,0.1 0.3,0.2 0,0 0.4,0.2 0.4,0.2 0,0 0.6,0.4 0.6,0.4 0,0 0.5,0.3 0.5,0.3 0,0 0.1,0.2 0.2,0.2 0,0 0.1,0.1 0.2,0.2 0,0 0.1,0.2 0.2,0.3 0,0 0.1,0.1 0.2,0.2 0,0 0.1,0.2 0.2,0.2 0,0 0.1,0.2 0.1,0.2 v 0.2 0.2 c 0,0.1 -0.1,0.2 -0.1,0.2 0,0.1 -0.1,0.1 -0.1,0.1 0,0.1 -0.1,0.2 -0.1,0.2 -0.1,0.1 -0.2,0.1 -0.2,0.1 0,0.1 -0.5,0 -0.5,0 l -0.7,-0.1 -0.7,-0.2 c -0.1,0 -0.5,-0.1 -0.5,-0.1 l -0.4,-0.1 c -0.1,0 -0.2,0 -0.3,0 0,0.1 0,0.2 0,0.4 0,0 0.1,0.1 0.1,0.2 0,0 0.2,0.2 0.3,0.3 0,0 0.2,0.2 0.2,0.2 0,0 0.1,0.1 0.2,0.2 0,0 0.2,0.1 0.2,0.2 0,0 0.1,0.1 0.2,0.1 0,0 0.1,0.1 0.1,0.1 0,0 0.4,0.2 0.4,0.3 0,0 0.2,0.1 0.3,0.2 0,0 0.2,0.1 0.2,0.1 l 0.2,0.1 c 0.2,0.1 0.4,0 0.6,0 0,0 0.1,0 0.2,-0.1 0,0 0.1,-0.1 0.2,-0.1 0,0 0.2,-0.1 0.2,-0.3 l 0.2,-0.4 c 0,-0.1 0.2,-0.4 0.2,-0.4 l 0.3,-0.7 0.2,-0.5 c 0.1,-0.2 0.1,-0.5 0.2,-0.6 l 0.1,-0.2 c 0,-0.1 0,-0.1 0,-0.1 h 1.5 c 0.1,0 0.2,0 0.3,0 0,0 0.4,0 0.6,0 0,0 0.4,0 0.7,-0.1 0,0 0.3,-0.1 0.3,-0.2 0,0 0.1,-0.1 0.2,-0.1 0,0 0.3,-0.3 0.3,-0.3 l 0.1,-0.1 c 0.1,0 0.1,0 0.2,0 h 0.3 1.1 l 0.8,0.1 0.4,0.1 0.8,0.1 c 0.2,0 1.4,0 1.4,0 h 1.1 l 0.4,0.2 c 0.2,0.1 0.3,0.1 0.3,0.1 0.1,0.1 0.2,0.1 0.2,0.1 0.1,0.1 0.3,0.2 0.3,0.2 0.1,0.1 0.1,0.1 0.1,0.1 0,0 0.1,0.1 0.1,0.1 0,0 0.1,0.1 0.1,0.1 v 0.1 1.1 c 0,0 0,0.1 -0.1,0.1 0,0 -0.1,0.1 -0.2,0.1 0,0 -0.2,0.1 -0.2,0.2 0,0 -0.1,0.1 -0.2,0.1 0,0 -0.1,0.1 -0.1,0.1 0,0 -0.1,0.1 -0.1,0.2 l -0.1,0.1 c 0,0.1 0,0.1 -0.1,0.1 v 0.1 1.3 c 0,0 0,0.2 0,0.2 0,0.1 -0.1,0.2 -0.1,0.2 l -0.2,0.4 c -0.1,0.1 -0.2,0.3 -0.2,0.3 0,0 -0.1,0.1 -0.1,0.1 -0.1,0.1 -0.1,0.1 -0.1,0.1 0,0 -0.2,0.1 -0.2,0.1 -0.3,0 -0.6,0 -0.9,0.1 0,0 -0.1,0.1 -0.2,0.1 0,0 -0.1,0.1 -0.1,0.1 0,0 -0.3,0.4 -0.3,0.4 0,0 -0.2,0.3 -0.3,0.5 0,0 -0.1,0.3 -0.3,0.5 0,0 0,0.1 -0.1,0.2 0,0 -0.1,0.1 -0.4,0.3 0,0 -0.4,0.1 -0.5,0.1 h -0.4 l -1.3,-0.1 h -1.2 c -0.1,0 -0.3,0 -0.5,0.1 0,0 -0.6,0.2 -0.6,0.2 0,0 -0.1,0.1 -0.1,0.2 0,0.1 0,0.1 0.1,0.1 h 0.1 c 0.2,0 0.8,0.2 0.8,0.2 l 0.7,0.1 c 0.2,0 0.4,0 0.5,0 h 0.1 0.9 c 0,0 0.5,0 0.6,0 h 0.1 c 0.5,0 1,0 1.4,0 h 0.2 c 0.1,0 0.5,0 0.5,0 0.2,0 0.4,0 0.6,0 0.1,0 0.2,0.1 0.3,0.2 0,0 0.2,0.2 0.2,0.3 0,0 0.1,0.2 0.1,0.3 0,0 0.1,0.3 0.1,0.5 v 0.7 c 0,0.3 -0.1,1 -0.1,1 l -0.1,0.4 c 0,0.3 -0.1,0.7 -0.2,0.8 0,0 -0.1,0.1 -0.1,0.1 0,0 -0.1,0.1 -0.2,0.1 0,0 -0.1,0.1 -0.2,0.1 0,0 -0.1,0.1 -0.2,0.1 0,0 -0.4,0.1 -0.6,0.1 0,0 -0.2,0.1 -0.3,0.1 h -0.2 c 0,0 -0.3,0 -0.4,0 0,0 -0.2,0 -0.3,0.1 0,0 -0.2,0 -0.2,0 0,0 -0.1,0 -0.2,0 h -0.1 l -1.1,-0.1 c -0.1,0 -0.2,0 -0.4,0 0,0 -0.9,0.1 -1.4,0.1 l -0.6,0.1 -1,0.1 c 0,0 -0.4,0 -0.6,0.1 0,0 -0.4,0 -0.5,0.1 h -0.8 c -0.1,0 -0.1,-0.1 -0.1,-0.1 0,0 -0.1,-0.1 -0.1,-0.2 0,0 0,-0.1 -0.1,-0.2 0,0 0,-0.2 -0.1,-0.3 v -0.6 -1.3 c 0.1,-0.1 0.1,-0.2 0.1,-0.2 v -0.1 c 0,-0.1 0,-0.1 0,-0.2 V 468 c 0,-0.4 0,-0.7 0,-1.2 v -0.1 c 0,-0.1 0,-0.1 -0.1,-0.3 v -1.8 c 0,-0.4 0,-0.7 0,-1.1 0,0 0,-0.1 -0.1,-0.2 0,0 -0.1,-0.1 -0.1,-0.1 0,0 -0.1,-0.1 -0.2,-0.2 0,0 -0.1,-0.1 -0.2,-0.1 0,0 -0.1,0 -0.1,0 0,0 -0.1,0.1 -0.1,0.1 l -0.1,0.1 c -0.1,0.1 -0.1,0.3 -0.1,0.6 v 0.6 c 0,0.1 -0.1,0.4 -0.1,0.4 0,0 -0.1,0.1 -0.1,0.2 l -0.1,0.4 c -0.1,0.1 -0.2,0.2 -0.2,0.2 -0.1,0.1 -0.2,0.1 -0.2,0.1 -0.1,0 -0.5,0 -0.5,0 l -0.9,-0.1 c -0.2,0 -0.4,0 -0.6,0 0,0 -0.4,0.1 -0.6,0.1 0,0 -0.2,0 -0.3,0.1 0,0 -0.1,0.1 -0.2,0.1 0,0 -0.1,0.1 -0.1,0.1 0,0 -0.1,0.1 -0.1,0.2 0,0.1 0.1,0.1 0.1,0.1 l 0.9,0.1 c 0.4,0.1 0.7,0.2 0.9,0.2 l 0.3,0.1 c 0.1,0 0.3,0.1 0.3,0.1 0,0 0.4,0.1 0.6,0.2 l 0.2,0.1 -0.1,0.1 c 0,0.1 -0.1,0.1 -0.2,0.1 0,0 -0.1,0.1 -0.2,0.1 0,0 -0.1,0.1 -0.2,0.1 0,0 -0.2,0 -0.3,0.1 0,0 -0.3,0.1 -0.3,0.1 l -0.4,0.1 c -0.3,0 -0.6,0.1 -0.9,0.1 0,0 -0.7,0.1 -0.8,0.1 0,0 -0.4,0 -0.5,0.1 h -0.4 c -0.1,0 -0.3,0 -0.4,0 0,0 -0.2,0.1 -0.3,0.1 0,0 -0.1,0.1 -0.1,0.2 0,0.1 0.1,0.1 0.1,0.1 h 0.3 c 0.4,0 0.8,0 1.1,-0.1 h 0.2 0.2 0.2 c 0.1,0.1 0.5,0 0.5,0 0.2,0 0.4,0 0.6,-0.1 h 1 0.7 0.3 c 0.1,0 0.1,0.1 0.1,0.1 l 0.1,0.1 c 0,0 0,0.4 0,0.6 0,0 0,0.1 -0.1,0.3 0,0 -0.2,0.3 -0.4,0.4 0,0 -0.1,0.1 -0.2,0.1 0,0 -0.1,0.1 -0.2,0.1 0,0 -0.2,0.1 -0.3,0.1 0,0 -0.5,0.3 -1.3,0.4 -0.3,0 -0.6,0.1 -0.9,0.1 0,0 -0.2,0 -0.4,0 0,0 -1.2,0.1 -1.7,0.1 h -0.1 -0.3 -0.1 -0.9 -0.3 c 0,0 -1,0 -1,-0.1 h -0.1 c 0,0 0,-0.1 0,-0.2 l -0.1,-1.2 v -0.3 c 0,-0.2 -0.1,-0.9 -0.1,-0.9 0,-0.1 0,-0.3 0,-0.3 0,-0.2 -0.1,-0.6 -0.1,-0.6 0,0 0,-0.5 0,-0.5 0,-0.3 0,-0.9 0,-0.9 0,-0.2 0,-0.5 0,-0.8 0,0 -0.1,-1 -0.1,-1.3 0,0 -0.1,-0.8 -0.1,-0.9 l -0.1,-0.7 c 0,-0.4 0,-0.6 -0.1,-0.9 0,0 0,-0.6 -0.1,-1 l -0.1,-1.2 0.1,-0.9 c 0,0 0.2,-0.3 0.2,-0.3 0,0 0.2,-0.2 0.2,-0.2 0,0 0.2,-0.2 0.2,-0.2 0.1,0 0.3,-0.2 0.3,-0.2 0.1,0 0.4,-0.2 0.4,-0.2 0.1,0 0.3,-0.2 0.3,-0.2 0,0 0.2,-0.2 0.2,-0.2 0,0 0.7,-0.4 0.7,-0.4 0.2,0 0.7,-0.3 0.7,-0.3 0.1,0 0.2,-0.1 0.2,-0.1 0.1,0 0.6,-0.4 0.6,-0.4 0.1,0 0.2,-0.2 0.2,-0.2 0,0 0.2,-0.2 0.2,-0.2 0,0 0.1,-0.1 0.1,-0.1 0.1,0 0,0 0.2,-0.1 z"
   id="path4" />
	<path
   d="m 237.3,456.7 c 0.2,0 0.5,0.2 0.5,0.2 0,0 0.2,0.1 0.3,0.1 0,0 0.3,0 0.5,0.1 0,0 0.2,0.1 0.4,0.1 0,0 0.2,0 0.3,-0.1 l 0.1,-0.1 h 0.8 c 0,0 0.3,0.1 0.3,0.1 l 0.2,0.1 c 0.1,0 0.3,0.1 0.4,0.1 h 0.1 v 0.8 c 0,0 0,0.2 0,0.2 0,0.1 -0.1,0.2 -0.1,0.2 0,0.1 -0.1,0.2 -0.1,0.2 0,0.1 -0.1,0.3 -0.1,0.3 0,0.1 -0.1,0.1 -0.1,0.1 0,0 -0.2,0.1 -0.2,0.1 -0.1,0.1 -0.2,0.1 -0.2,0.1 -0.1,0 -0.2,0.1 -0.2,0.1 -0.1,0 -0.2,0.1 -0.2,0.1 -0.1,0.1 -0.4,0.1 -0.4,0.1 h -0.9 l -0.7,-0.1 c -0.2,0 -0.3,-0.1 -0.4,-0.1 l -0.3,-0.1 c -0.1,0 -0.3,-0.2 -0.3,-0.2 -0.1,-0.1 -0.2,-0.3 -0.2,-0.3 -0.1,-0.1 -0.1,-0.2 -0.1,-0.2 0,-0.1 0,-0.2 -0.1,-0.3 0,-0.1 -0.1,-0.2 -0.1,-0.2 0,-0.1 -0.1,-0.2 -0.1,-0.2 0,-0.1 -0.1,-0.2 -0.1,-0.2 0,-0.1 -0.1,-0.2 -0.1,-0.2 0,-0.1 -0.1,-0.3 -0.1,-0.3 V 457 c 0.1,-0.1 0.1,-0.1 0.1,-0.1 0.1,-0.1 0.1,-0.1 0.1,-0.1 0,0 0.1,-0.1 0.1,-0.1 0.1,-0.1 0.2,-0.1 0.2,-0.1 0.1,0 0.3,-0.1 0.3,-0.1 z"
   id="path5" />
	<path
   d="m 226.7,460.4 c -0.2,0 -0.2,0 -0.2,0 0,0 -0.1,0 -0.2,0.1 0,0 -0.1,0.1 -0.2,0.1 0,0 -0.1,0.1 -0.2,0.1 0,0 -0.1,0.1 -0.2,0.1 0,0 -0.1,0 -0.1,0.1 0,0 -0.2,0.2 -0.2,0.3 l -0.1,0.2 c -0.1,0.4 0.1,1 0.1,1 0,0 0.1,0.2 0.1,0.2 0,0.1 0.1,0.2 0.1,0.2 0.1,0.1 0.1,0.2 0.1,0.2 v 0.2 c 0,0.1 -0.1,0.1 -0.1,0.1 0,0.1 -0.1,0.1 -0.1,0.1 0,0 -0.2,0.1 -0.2,0.1 h -0.2 c 0,0 -0.1,0 -0.4,-0.1 -0.1,0 -0.2,-0.1 -0.2,-0.1 -0.1,-0.1 -0.3,-0.2 -0.3,-0.2 -0.1,-0.1 -0.2,-0.2 -0.2,-0.2 -0.2,-0.2 -0.3,-0.3 -0.3,-0.3 0,0 -0.4,-0.4 -0.4,-0.4 -0.2,-0.2 -0.7,-0.7 -0.7,-0.7 0,-0.1 -0.1,-0.2 -0.1,-0.2 0,-0.1 -0.1,-0.2 -0.1,-0.2 v -0.5 c 0,0 0,-0.2 0.1,-0.3 0,-0.1 0.1,-0.1 0.1,-0.1 0,0 0.1,-0.1 0.1,-0.1 0.1,-0.1 0.1,-0.1 0.1,-0.1 h 0.5 0.8 l 1.5,0.1 c 0.1,0 0.5,0.1 0.5,0.1 0.1,0 0.2,0.1 0.3,0.1 l 0.8,0.1 c 0.2,0 0.3,0 0.4,0 h 0.2 c 0.3,0 0.6,0 0.8,-0.1 h 0.9 0.7 c 0,0 0.4,0 0.6,-0.1 0,0 0.2,-0.2 0.2,-0.2 0,0 0.2,-0.2 0.2,-0.3 0,0 0.1,-0.1 0.1,-0.2 0,0 0.1,-0.2 0.1,-0.3 0,0 0,0 0,-0.1 v -0.3 c 0,0 -0.1,-0.1 -0.1,-0.2 0,0 0,-0.2 -0.1,-0.3 0,0 0,-0.1 -0.1,-0.2 0,0 -0.1,-0.1 -0.1,-0.2 0,0 -0.1,-0.1 -0.1,-0.1 0,0 -0.1,-0.1 -0.2,-0.2 0,0 -0.2,-0.1 -0.2,-0.1 0,0 -0.1,0 -0.3,-0.2 0,0 0,0 -0.4,-0.2 l -0.3,-0.1 -0.4,-0.1 H 228 226.7 226 l -0.6,-0.1 c -0.2,0 -0.6,-0.1 -0.6,-0.2 0,0 -0.4,-0.1 -0.4,-0.2 l -0.3,-0.1 c -0.1,0 -0.3,-0.2 -0.3,-0.2 0,0 -0.2,-0.1 -0.2,-0.1 0,0 -0.2,-0.1 -0.2,-0.1 0,0 -0.2,-0.3 -0.2,-0.3 0,0 -0.1,-0.1 -0.2,-0.1 l -0.4,-0.1 h -0.7 -0.1 c 0,0 -0.1,0 -0.1,0 -0.1,0 -0.6,0 -0.6,0 -0.1,0 -0.4,0 -0.4,0 H 220 c 0,0 -0.1,0.1 -0.1,0.1 0,0 -0.1,0.1 -0.1,0.1 0,0 -0.1,0.2 -0.1,0.3 0,0 -0.1,0.1 -0.2,0.4 v 0.5 l 0.1,0.4 c 0.1,0.1 0.2,0.2 0.2,0.2 0.1,0.5 0,0.7 0,0.9 0,0.1 -0.1,0.3 -0.1,0.4 l -0.2,0.3 c -0.1,0.1 -0.1,0.2 -0.1,0.2 0,0 -0.2,0.2 -0.2,0.2 -0.1,0.1 -0.3,0.6 -0.3,0.6 l -0.1,0.2 c 0,0.2 0,0.5 0,0.8 0,0 0.2,0.6 0.2,0.6 0,0 0.1,0.2 0.1,0.2 0,0 0.1,0.2 0.1,0.2 0,0 0.2,0.2 0.2,0.4 v 0.3 c 0,0 0,0.1 -0.1,0.2 l -0.2,0.5 c -0.1,0.1 -0.2,0.6 -0.2,0.6 0,0.2 0,0.4 0,0.5 0,0 0.1,0.4 0.2,0.5 0,0 0.1,0.1 0.1,0.2 0,0 0.2,0.1 0.2,0.1 l 0.2,0.1 c 0.3,0.1 0.4,0.1 0.6,0 0,0 0.1,0 0.2,-0.1 0,0 0.3,-0.2 0.3,-0.2 l 0.4,-0.2 c 0,0 0.3,-0.2 0.3,-0.2 h 0.2 0.2 0.1 c 0.1,0.1 0.1,0.2 0.1,0.2 0.1,0.2 0.1,0.3 0.1,0.4 0,0.1 0.1,0.4 0.1,0.4 v 0.3 c 0,0.1 -0.2,0.2 -0.2,0.2 -0.1,0.1 -0.2,0.2 -0.2,0.2 -0.1,0.1 -0.2,0.1 -0.2,0.1 -0.1,0 -0.3,0.2 -0.3,0.2 -0.1,0.1 -0.2,0.2 -0.2,0.2 -0.1,0.1 -0.3,0.2 -0.3,0.2 -0.1,0 -0.2,0.1 -0.2,0.1 -0.1,0 -0.3,0.2 -0.3,0.2 -0.1,0 -0.2,0.1 -0.2,0.1 -0.1,0.1 -0.5,0.3 -0.5,0.3 -0.1,0 -0.3,0.2 -0.3,0.2 -0.1,0.1 -0.3,0.2 -0.3,0.2 h -0.2 c -0.1,0 -0.1,-0.1 -0.1,-0.1 0,-0.1 -0.8,-0.8 -0.8,-0.8 -0.1,-0.1 -0.2,-0.2 -0.2,-0.2 -0.2,0 -0.4,0 -0.5,0 0,0 -0.1,0 -0.4,0.2 -0.3,0.1 -0.5,0.1 -0.5,0.1 h -0.1 c -0.1,0 -0.2,-0.1 -0.2,-0.1 v -0.2 c 0,-0.1 0.1,-0.2 0.2,-0.2 0,0 0.1,-0.1 0.2,-0.1 0,0 0.2,-0.1 0.3,-0.2 0,0 0.1,0 0.2,-0.1 0,0 0.1,-0.1 0.2,-0.1 0,0 0.3,-0.3 0.3,-0.5 0,0 0,-0.1 0.1,-0.1 v -0.1 l 0.1,-0.3 c 0,0 0,-0.1 0.1,-0.5 0,-0.1 0,-0.4 -0.1,-0.5 0,0 -0.1,-0.1 -0.1,-0.2 0,0 -0.1,-0.2 -0.3,-0.2 l -0.3,-0.1 c 0,0 -0.1,0 -0.3,-0.1 -0.1,0 -0.2,-0.1 -0.2,-0.1 0,0 -0.2,-0.1 -0.2,-0.1 -0.1,-0.1 -0.1,-0.2 -0.1,-0.2 v -0.1 c 0,-0.1 0.1,-0.2 0.1,-0.2 0,0 0.1,-0.1 0.1,-0.1 0.1,-0.1 0.2,-0.1 0.2,-0.1 0,0 0.1,-0.1 0.1,-0.1 0.1,-0.1 0.4,-0.3 0.4,-0.3 -0.1,0.1 0.2,-0.2 0.2,-0.2 0,0 0.3,-0.2 0.3,-0.2 0.1,0 0.2,-0.3 0.2,-0.3 0.2,-0.2 0.3,-0.3 0.3,-0.3 0.1,-0.1 0.2,-0.2 0.2,-0.2 0,-0.1 0.1,-0.2 0.1,-0.2 l 0.1,-0.3 0.2,-1.1 c 0,-0.5 0,-0.9 -0.1,-1.4 0,0 -0.1,-0.2 -0.1,-0.3 0,0 -0.1,-0.2 -0.1,-0.3 0,0 -0.1,-0.1 -0.1,-0.2 0,0 0,-0.1 -0.1,-0.1 0,0 -0.1,-0.1 -0.1,-0.2 0,0 -0.1,-0.1 -0.1,-0.2 0,0 -0.1,-0.1 -0.1,-0.2 0,0 -0.1,-0.1 -0.1,-0.1 0,0 -0.1,-0.1 -0.1,-0.1 l -0.6,-0.1 c -0.2,0 -0.6,-0.1 -0.6,-0.1 -0.1,0 -0.3,0 -0.4,0 l -2,0.2 c 0,0 -0.1,0 -0.1,0 -0.1,0 -0.2,0 -0.2,0 -0.1,0 -0.4,-0.1 -0.4,-0.1 l -0.5,-0.1 -0.5,-0.1 h -1.5 c 0,0 -0.2,0 -0.2,0.1 0,0 -0.1,0.1 -0.3,0.1 0,0 -0.1,0 -0.2,0.1 0,0 -0.1,0 -0.3,0.1 0,0 -0.1,0.1 -0.2,0.1 0,0 -0.2,0.2 -0.2,0.2 0,0 -0.1,0.2 -0.2,0.3 0,0 0,0.1 -0.1,0.2 -0.1,0.1 -0.1,0.3 -0.1,0.3 v 0.7 0.3 c 0,0 0,0.1 0.1,0.2 0,0 0.1,0.1 0.1,0.1 0,0 0.1,0.1 0.2,0.1 l 0.2,0.1 c 0.1,0 0.2,0.1 0.2,0.1 0,0 0.3,0.1 0.3,0.1 0.1,0 0.3,0.1 0.3,0.1 0.1,0 0.2,0.1 0.2,0.1 0.1,0.1 0.1,0.1 0.1,0.1 0,0 0.1,0.1 0.1,0.1 0,0.1 0,0.3 0,0.3 0,0 -0.1,0.1 -0.1,0.1 0,0 -0.2,0.1 -0.3,0.1 0,0 -0.1,0.1 -0.2,0.1 0,0 -0.1,0.1 -0.1,0.1 0,0 0,0.1 -0.1,0.1 0,0 0,0.1 -0.1,0.2 0,0 0,0 -0.1,0.2 v 0.3 c 0.1,0.2 0.2,0.4 0.2,0.4 0,0 0.1,0.1 0.1,0.1 0.1,0.1 0.1,0.1 0.1,0.1 0,0 0.1,0 0.1,0 0.2,0.1 0.2,0.1 0.2,0.1 0,0 0.3,0.1 0.3,0.1 0.1,0.1 0.4,0.2 0.4,0.2 0.2,0 0.3,0.1 0.4,0.1 0,0 0.4,0 0.6,0.1 0,0 0.2,0 0.3,0.1 0,0 0.2,0 0.3,0.1 l 0.1,0.1 c 0,0 0.1,0.1 0.1,0.1 0,0 0.1,0.2 0.1,0.2 0,0.1 0,0.3 0,0.4 0,0 0,0.1 -0.1,0.2 l -1.3,0.1 c -0.2,0 -0.5,0 -0.8,0.1 0,0 -0.1,0.1 -0.2,0.1 0,0 -0.1,0.1 -0.1,0.1 0,0 0,0.1 -0.1,0.1 0,0 0,0.1 -0.1,0.1 0,0 0,0.1 -0.1,0.2 -0.1,0.1 -0.1,0.3 -0.1,0.3 0,0 0,0 0,0.2 v 0.7 c 0,0 0,0.6 0.1,0.8 v 0.2 c 0,0 0.1,0.2 0.1,0.2 0,0 0.1,0.1 0.1,0.1 0.1,0 0.2,0 0.2,0 h 0.2 c 0.3,0 0.9,-0.1 0.9,-0.1 0.3,0 0.6,-0.1 0.9,0 l 0.1,0.1 c 0.1,0.1 0,0.2 0,0.4 v 0.1 c 0,0.1 -0.1,0.2 -0.1,0.2 0,0 -0.1,0.1 -0.1,0.1 -0.1,0 -0.2,0.1 -0.2,0.1 0,0 -0.1,0.1 -0.1,0.1 0,0 -0.2,0.1 -0.2,0.1 0,0 -0.2,0.1 -0.2,0.1 -0.2,0 -0.8,0.1 -0.8,0.1 -0.1,0 -0.6,0.1 -0.8,0.1 0,0 -0.2,0.1 -0.2,0.1 -0.3,0.1 -0.3,0.1 -0.3,0.1 0,0 -0.1,0 -0.2,0.1 0,0 -0.1,0.2 -0.2,0.2 0,0 -0.1,0.1 -0.1,0.2 -0.1,0.1 -0.1,0.3 -0.1,0.3 0,0.1 0,0.2 0,0.3 v 0.1 c 0,0.2 0,0.3 0,0.5 0,0 0,0.2 0.1,0.3 0,0 0,0.2 0.1,0.2 0,0 0.1,0.1 0.1,0.2 0,0 0.1,0.1 0.1,0.1 0,0 0.2,0.1 0.3,0.2 0,0 0.2,0.1 0.2,0.1 0,0 0.1,0 0.2,0.1 0.1,0 0.3,0.1 0.3,0.1 l 0.5,0.1 h 0.4 c 0,0 0.4,0 0.7,-0.1 0,0 1.3,-0.4 1.5,-0.4 0.2,-0.1 0.3,-0.1 0.4,-0.1 0.3,-0.1 0.3,-0.1 0.4,-0.1 0.1,-0.1 0.3,-0.1 0.4,-0.1 l 0.5,-0.2 c 0.3,0 0.6,-0.1 0.9,0 h 0.4 c 0.2,0 0.5,0 0.8,-0.1 0,0 0.2,-0.1 0.2,-0.1 0,0 0.1,-0.1 0.2,-0.1 0,0 0.1,-0.1 0.2,-0.1 0,0 0.1,0 0.2,-0.1 0,0 0,0 0.1,-0.1 0,0 0.1,-0.2 0.1,-0.2 l 0.1,-0.2 c 0.1,0 0.3,0 0.4,0 l 0.2,0.1 c 0,0.1 0.1,0.1 0.1,0.1 0,0 0.4,0.5 0.4,0.5 0.1,0.1 0.2,0.2 0.3,0.3 0,0 0.1,0.2 0.2,0.4 0,0 0.1,0.2 0.1,0.2 0,0 0.1,0.1 0.2,0.2 0.1,0.1 0.3,0.1 0.3,0.1 h 0.3 c 0,0 0.2,0 0.4,-0.1 0.2,0 0.3,-0.1 0.4,-0.1 0,0 0.1,0 0.2,-0.1 0,0 0.2,-0.1 0.3,-0.2 0,0 0.2,-0.1 0.2,-0.2 l 0.5,-0.4 c 0,0 0.2,-0.2 0.2,-0.2 l 0.3,-0.3 c 0,0 0.3,-0.3 0.3,-0.3 0,0 0.2,-0.3 0.2,-0.3 0.1,0 0.2,0 0.3,0 l 0.1,0.1 c 0,0 0.3,0.2 0.3,0.2 0.1,0.1 0.3,0.2 0.3,0.2 0,0 0.2,0.2 0.2,0.2 0.1,0.1 0.3,0.2 0.3,0.2 0,0 0.4,0.2 0.4,0.2 0,0 0.4,0.2 0.4,0.2 0,0 0.2,0.1 0.2,0.2 l 0.2,0.2 c 0,0 0.1,0.1 0.1,0.1 0,0 0.3,0.1 0.3,0.1 0,0 0.3,0.2 0.3,0.2 0.1,0 0.2,0.1 0.2,0.1 0.1,0 0.3,0.1 0.3,0.1 h 0.5 c 0,0 0.4,0 0.6,-0.1 0,0 0.1,-0.1 0.2,-0.1 0,0 0.1,-0.1 0.3,-0.1 0,0 0.2,-0.1 0.3,-0.2 0,0 0.3,-0.2 0.4,-0.3 0,0 0.3,-0.2 0.3,-0.3 0,0 0.4,-0.3 0.5,-0.5 0,0 0.2,-0.2 0.2,-0.3 0,0 0.2,-0.3 0.4,-0.5 0,0 0.1,-0.1 0.1,-0.2 0,0 0.1,-0.2 0.2,-0.3 0.1,-0.1 0.1,-0.3 0.1,-0.3 0,-0.1 0.1,-0.3 0.1,-0.3 v -0.2 c 0,0 0,-0.1 -0.1,-0.2 0,0 -0.1,-0.1 -0.1,-0.1 0,0 -0.1,-0.1 -0.2,-0.1 l -0.4,-0.2 c -0.1,-0.1 -0.3,-0.1 -0.3,-0.1 H 231 c -0.1,0 -0.8,-0.1 -0.8,-0.1 h -0.8 c -0.3,0 -0.7,-0.1 -0.7,-0.2 0,0 -0.2,0 -0.3,-0.1 0,0 -0.5,-0.2 -0.5,-0.2 l -0.3,-0.2 c 0,0 -0.1,-0.1 -0.1,-0.1 0,-0.1 -0.1,-0.2 -0.1,-0.2 0,-0.3 0,-0.5 0,-0.8 l 0.1,-0.6 c 0,0 0,-0.1 0.1,-0.1 0.1,-0.1 0.1,-0.2 0.1,-0.2 0,0 0.1,-0.2 0.2,-0.2 0,0 0.2,-0.2 0.3,-0.4 0,0 0.1,-0.1 0.3,-0.2 0,0 0,0 0.1,-0.1 0.2,0 0.1,-0.3 0.1,-0.3 v -0.2 c 0,-0.2 -0.1,-0.3 -0.1,-0.4 0,0 -0.1,-0.2 -0.1,-0.3 0,0 -0.1,-0.2 -0.1,-0.3 0,0 -0.1,0 -0.1,-0.1 0,0 0,0 -0.2,-0.1 0,0 -0.1,-0.1 -0.2,-0.1 0,0 0,0 -0.2,-0.1 0,0 0,0 -0.2,-0.1 0,0 0,0 -0.1,-0.1 0,0 -0.1,-0.1 -0.1,-0.1 -0.1,0 -0.2,-0.1 -0.2,-0.1 0,0 -0.1,0 -0.2,-0.1 0,0 -0.1,0 -0.2,-0.1 0,0 -0.1,0 -0.2,-0.1 h -0.2 z"
   id="path6" />
	<path
   d="m 240.5,459.8 c 0,0 0.2,0.1 0.4,0.1 0.2,0.1 0.2,0.1 0.2,0.1 0,0 0.1,0.1 0.1,0.1 0.1,0.1 0.1,0.2 0.1,0.2 0.1,0.1 0.1,0.3 0.1,0.3 v 0.2 l -0.1,0.5 c 0,0.1 -0.1,0.3 -0.1,0.3 0,0 -0.1,0.1 -0.1,0.3 -0.1,0.1 -0.2,0.2 -0.2,0.2 -0.1,0.1 -0.2,0.1 -0.2,0.1 -0.1,0 -0.2,0.1 -0.2,0.1 -0.1,0 -0.2,0.1 -0.2,0.1 -0.1,0.1 -0.3,0.1 -0.3,0.1 h -1.3 -0.1 c -0.1,0 0,0 -0.1,0 l -0.1,0.1 h -1 c -0.1,0 -0.2,-0.1 -0.2,-0.1 -0.1,0 -0.2,-0.1 -0.2,-0.1 -0.1,0 -0.3,-0.2 -0.3,-0.2 0,0 -0.2,-0.2 -0.2,-0.2 0,-0.1 -0.1,-0.2 -0.1,-0.2 0,-0.1 -0.1,-0.2 -0.1,-0.4 v -0.7 c 0,0 0,-0.2 0.1,-0.3 0,0 0,-0.1 0.1,-0.3 0,0 0.2,-0.2 0.2,-0.2 0,0 0.1,-0.1 0.1,-0.1 0,0 0.1,-0.1 0.1,-0.1 0.1,0 0.2,-0.1 0.2,-0.1 l 0.7,-0.1 1.6,-0.1 z"
   id="path7" />
	<path
   d="m 245.4,459.7 h 0.3 c 0.1,0 0.2,0 0.2,0 h 0.4 v 0.1 c 0,0.1 -0.1,0.1 -0.1,0.1 h -0.6 -1 c -0.1,0 -0.2,0 -0.3,0.1 0,0 -0.2,0.1 -0.2,0.1 0,0 -0.1,0 -0.2,0.1 0,0 -0.1,0 -0.2,0.1 0,0 -0.1,0.1 -0.2,0.1 0,0 -0.1,0.1 -0.2,0.1 0,0 -0.1,0.1 -0.1,0.1 0,0 0,0 -0.2,0.1 0,0 -0.1,0.1 -0.1,0.1 0,0 0,0 -0.1,0.1 0,0 0,0.1 -0.1,0.2 v 1 1.1 c 0,0 0.1,0.2 0.1,0.3 l 0.1,0.1 c 0,0.1 0,0.2 0,0.3 l -0.1,0.1 v 0.2 l -0.1,1.2 v 0.8 c 0,0.1 0.2,0.4 0.2,0.4 0,0.1 0,0.2 0,0.4 l -0.1,0.1 c -0.1,0 -0.4,-0.1 -0.4,-0.1 -0.1,0 -0.4,0 -0.5,-0.1 l -0.4,-0.1 -0.1,-0.1 c -0.2,0 -0.3,-0.3 -0.3,-0.3 0,-0.2 -0.1,-0.5 -0.1,-0.8 0,0 -0.1,-0.1 -0.1,-0.1 0,0 0,-0.1 -0.1,-0.2 0,0 -0.1,-0.1 -0.1,-0.1 l -0.5,-0.1 h -0.3 c -0.1,0 -0.5,0.1 -0.6,0.1 0,0 -0.4,0.1 -0.6,0.2 0,0 -0.2,0.1 -0.4,0.1 0,0 -0.4,0.1 -0.6,0.2 0,0 -0.7,0.2 -0.8,0.3 0,0 -0.4,0.2 -0.6,0.3 -0.1,0.1 -0.2,0 -0.4,0.1 0,0 -0.3,0 -0.6,0.1 0,0 -0.4,0.1 -0.5,0.2 0,0 -0.2,0.1 -0.3,0.1 0,0 -0.2,0.1 -0.2,0.2 l -0.1,0.2 v 0.3 l 0.1,0.3 c 0,0 0.3,0.5 0.5,0.8 0,0 0.5,0.5 0.6,0.7 0,0 0.3,0.3 0.4,0.4 0,0 0.5,0.3 0.6,0.4 0.2,0.1 0.4,0.1 0.5,0.1 h 0.3 c 0,0 0.3,-0.1 0.4,-0.2 0,0 0.4,-0.2 0.6,-0.3 0,0 0.9,-0.4 1,-0.4 0.2,-0.1 0.9,-0.2 1.2,-0.3 h 0.5 c 0,0 0.3,0.2 0.4,0.3 0,0 0.2,0.1 0.3,0.1 l 0.8,0.1 c 0,0 0.5,-0.1 0.7,-0.2 0.1,-0.1 0.4,-0.1 0.5,-0.1 l 1.1,0.1 c 0,0 1.2,0.1 1.3,0.1 0,0 1.6,0.3 1.7,0.4 0,0 1.2,0.4 1.4,0.4 l 0.5,0.1 0.8,0.1 h 0.8 l 0.5,0.1 0.6,0.1 h 0.4 c 0,0 0.8,-0.1 1,-0.2 0,0 0.4,-0.1 0.6,-0.2 0,0 0.5,-0.3 0.6,-0.4 0,0 0.1,-0.1 0.1,-0.2 0,0 0.1,-0.2 0.2,-0.3 l 0.2,-0.6 0.3,-1 c 0,-0.1 0.1,-0.4 0.1,-0.4 v -0.2 c 0,0 0,-0.1 -0.1,-0.1 0,0 -0.1,-0.1 -0.1,-0.1 -0.2,-0.1 -0.2,-0.1 -0.2,-0.1 0,0 0,-0.1 -0.2,-0.1 H 255 c 0,0 -0.2,0.1 -0.3,0.1 0,0 -0.5,0.2 -0.8,0.1 l -0.1,-0.2 c 0,-0.1 0,-0.2 0,-0.4 l 0.1,-1.1 c 0,0 0,-0.2 0.1,-0.2 l 0.1,-0.1 c 0,-0.2 0.1,-0.4 0.1,-0.4 -0.1,-0.1 -0.1,-0.3 -0.1,-0.5 l 0.1,-0.8 c 0,0 0,-0.1 0.1,-0.3 l 0.1,-0.2 c 0,-0.1 0.1,-0.2 0.1,-0.3 l 0.1,-0.2 c 0,0 0.1,-0.2 0.2,-0.3 l 0.3,-0.2 c 0,0 0.1,-0.1 0.1,-0.1 v -1 c 0,0 0,-0.1 -0.1,-0.2 0,0 -0.2,-0.4 -0.3,-0.5 0,0 -0.3,-0.3 -0.4,-0.3 l -0.4,-0.2 c -0.1,0 -0.3,-0.1 -0.5,-0.1 l -0.7,-0.2 c -0.1,0 -0.4,-0.1 -0.5,-0.2 l -0.2,-0.1 c 0,-0.1 0,-0.1 0,-0.2 h 1.1 0.5 0.8 c 0.1,0 0.3,-0.2 0.3,-0.2 0,0 0.1,-0.1 0.1,-0.1 0,0 0.2,-0.2 0.2,-0.2 0,0 0,-0.1 0.1,-0.1 0,0 0.1,-0.2 0.1,-0.3 v -0.2 -0.7 c 0,0 -0.1,-0.1 -0.1,-0.1 0,0 -0.1,-0.1 -0.1,-0.1 0,0 -0.1,-0.1 -0.1,-0.1 0,0 -0.3,-0.2 -0.4,-0.2 l -0.1,-0.1 c 0,0 -0.4,-0.2 -0.6,-0.4 0,0 -0.2,-0.1 -0.4,-0.2 0,0 -0.5,-0.3 -0.5,-0.3 0,0 -0.4,-0.3 -0.4,-0.3 0,0 -0.2,-0.2 -0.2,-0.2 0,0 -0.2,-0.2 -0.4,-0.3 h -0.4 c -0.2,0.1 -0.2,0 -0.3,0.1 0,0 -0.1,0.1 -0.2,0.1 0,0 -0.1,0.2 -0.2,0.2 l -0.3,0.4 c 0,0 -0.1,0.2 -0.1,0.2 0,0 -0.3,0.3 -0.3,0.3 0,0 -0.2,0.2 -0.2,0.2 -0.1,0 -0.4,0.2 -0.4,0.2 -0.3,0 -0.7,0 -1,0.1 -0.2,0 -0.5,-0.1 -0.5,-0.1 0,0 -0.2,-0.1 -0.2,-0.1 0,0 -0.2,-0.2 -0.2,-0.2 0,0 -0.1,-0.1 -0.1,-0.1 0,0 -0.2,-0.2 -0.4,-0.3 l -0.4,-0.1 h -0.7 c 0,0 -0.3,0 -0.4,0 0,0 -0.3,0.1 -0.5,0.3 0,0 0,0 -0.1,0.1 0,0 -0.1,0.2 -0.2,0.3 0,0 0,0.1 -0.1,0.2 0,0 0,0.1 -0.1,0.2 0,0 -0.2,0.1 -0.2,0.1 0,0 -0.3,0.1 -0.5,0.1 0,0 -0.3,0.1 -0.6,0.1 0,0 -0.3,0.1 -0.5,0.2 0,0 -0.1,0 -0.2,0.1 0,0 -0.3,0.1 -0.4,0.2 0,0 -0.1,0.1 -0.2,0.1 0,0 -0.1,0.1 -0.1,0.2 0,0 0,0 -0.1,0.1 0,0 0,0.1 -0.1,0.2 v 0.4 c 0,0 0,0.4 0.2,0.5 0,0 0.2,0.2 0.3,0.2 0,0 0.1,0 0.2,0.1 l 0.6,0.2 0.6,0.1 c 0.2,0 0.3,0 0.5,0 z"
   id="path8" />
	<path
   fill="#ffffff"
   d="m 262.6,459.2 c 0,0 0.2,0.1 0.2,0.1 0,0 0.1,0.1 0.1,0.1 v 0.1 c -0.1,0.1 -0.2,0.1 -0.2,0.1 -0.1,0 -0.2,0.1 -0.2,0.1 l -0.4,0.1 c -0.1,0 -0.2,-0.1 -0.2,-0.1 0,0 -0.1,-0.1 -0.1,-0.1 0,-0.1 -0.1,-0.2 -0.1,-0.2 v -0.1 c 0.1,-0.1 0.2,-0.1 0.3,-0.1 z"
   id="path9" />
	<path
   fill="#ffffff"
   d="m 275.8,459.3 0.5,0.1 0.6,0.2 c 0,0 0.2,0 0.4,0.1 l 0.4,0.2 c 0.1,0 0.1,0.1 0.1,0.1 0.1,0 0.1,0.2 0.1,0.2 v 0.2 c 0,0 -0.1,0.2 -0.1,0.2 -0.1,0 -0.2,0.1 -0.2,0.1 h -0.2 c 0,0 -0.1,0 -0.3,-0.1 -0.1,-0.1 -0.2,-0.1 -0.2,-0.1 -0.1,-0.1 -0.2,-0.1 -0.2,-0.1 -0.1,-0.1 -0.2,-0.1 -0.2,-0.1 l -1,-0.1 -1,-0.1 -0.9,0.1 c -0.1,0 -0.3,-0.1 -0.6,0 l -0.7,0.1 c -0.1,0 -0.2,-0.1 -0.2,-0.1 0,0 -0.1,-0.1 -0.1,-0.1 V 460 c 0.1,0 0.1,-0.1 0.4,-0.1 0.1,0 0.4,-0.1 0.4,-0.1 0.1,-0.1 0.2,-0.1 0.2,-0.1 0.1,0 0.2,-0.1 0.4,-0.1 0,0 0.2,-0.1 0.2,-0.1 0.1,0 0.3,-0.1 0.3,-0.1 0,0 1.1,-0.1 1.3,-0.1 0.2,0 0.5,0 0.6,0 z"
   id="path10" />
	<path
   fill="#ffffff"
   d="m 247,461.5 c 0.1,0 0.1,0 0,0 h 0.2 1.1 l 0.3,0.1 c 0.2,0 0.1,0 0.3,0 l 0.1,0.1 h 1 c 0,0 0.1,0 0.3,0 h 0.1 l 0.1,0.1 c 0.1,0 0.1,0 0.1,0 v 0.2 c -0.1,0.1 -0.1,0 -0.2,0.1 h -0.1 -0.6 -0.1 c -0.2,0 -0.1,0 -0.3,0 h -0.2 -0.3 -0.2 c -0.1,0 -0.1,0 -0.2,0 h -0.2 -0.9 -0.3 c -0.1,0 -0.1,0 -0.2,0 h -0.1 c 0,0 0,0 -0.1,0 0,0 -0.1,0 -0.1,0 v -0.1 -0.1 c 0,0 0.1,-0.1 0.2,-0.1 h 0.2 z"
   id="path11" />
	<path
   fill="#ffffff"
   d="m 264.6,461.9 c 0.2,0.1 0.2,0.1 0.2,0.1 0.1,0 0.1,0.1 0.1,0.1 v 0.1 c -0.2,0.1 -0.3,0.1 -0.3,0.1 l -1.4,0.1 -0.6,-0.1 c -0.2,0 -0.3,-0.1 -0.3,-0.1 v -0.1 c 0,0 0.1,-0.1 0.3,-0.1 l 1.6,-0.1 c 0.1,0 0.3,0 0.4,0 z"
   id="path12" />
	<path
   d="m 237.7,463 v 0 l 0.8,0.1 0.1,0.1 c 0.2,0 0.3,0 0.5,0 l 0.1,-0.1 h 1.4 l 0.6,0.2 c 0.1,0.1 0.3,0.1 0.3,0.1 0.1,0.1 0.1,0.2 0.1,0.2 v 0.7 c 0,0 0,0.1 -0.1,0.3 -0.1,0.2 -0.3,0.3 -0.3,0.3 -0.1,0 -0.2,0.1 -0.2,0.1 -0.1,0 -0.2,0.1 -0.2,0.1 -0.1,0.1 -0.3,0.1 -0.3,0.1 -0.1,0.1 -0.3,0.1 -0.3,0.1 -0.1,0 -0.3,0.1 -0.3,0.1 -0.3,0.1 -0.4,0.1 -0.4,0.1 -0.1,0 -0.4,0.1 -0.4,0.1 -0.4,0.1 -0.8,0.1 -0.8,0.1 h -0.3 -0.5 l -0.4,-0.1 c 0,0 -0.2,-0.1 -0.2,-0.1 0,0 -0.2,-0.2 -0.2,-0.2 0,0 -0.2,-0.2 -0.2,-0.2 0,0 -0.1,-0.1 -0.1,-0.1 v -1.4 c 0,-0.1 0,-0.1 0.1,-0.1 0,0 0,-0.1 0.1,-0.1 h 0.9 z"
   id="path13" />
	<path
   fill="#ffffff"
   d="m 248.1,463.5 h 0.8 0.2 1 0.3 c 0.2,0 0.4,0 0.6,0 0,0 0,0 0.1,0.1 v 0 0.1 c 0,0 0,0 0,0 l -0.1,0.1 c -0.1,0 0,0 -0.1,0.1 l -0.1,0.1 h -1.4 -0.1 c -0.4,0 -0.7,0 -1.1,0 h -0.1 -0.1 -0.1 c -0.2,0 -0.3,0 -0.5,0 h -0.1 -0.2 c -0.1,0 -0.2,-0.1 -0.2,-0.1 0,0 -0.1,-0.1 -0.1,-0.1 0,0 -0.1,-0.1 -0.1,-0.1 0,0 -0.1,-0.1 -0.1,-0.1 v -0.2 c 0.1,-0.1 0.1,-0.1 0.2,-0.1 h 0.1 c 0.1,0 0.1,0 0.3,-0.1 h 0.7 z"
   id="path14" />
	<path
   fill="#ffffff"
   d="m 274,462.7 c 0.1,0 0,0.1 0.1,0.1 h 0.1 0.1 0.2 v 0 0 0.1 0.1 c 0,0 0,0 0,0 -0.1,0 -0.1,0.1 -0.2,0.1 l -0.2,0.1 h -0.2 -0.2 c -0.2,0 -0.2,0 -0.3,0 0,0 0,0 0,0 v 0 -0.3 c 0,-0.1 0,-0.1 0.2,-0.1 z"
   id="path15" />
	<path
   fill="#ffffff"
   d="m 249.4,465.3 c 0.1,0.1 0.2,0.1 0.2,0.1 v 0 c 0,0 0,0 0.1,0 0,0 0.1,0 0.2,0.1 v 0 0.1 c 0,0 -0.1,0 -0.1,0 h -0.1 -0.1 -0.1 c -0.1,0 -0.2,0 -0.3,0 H 249 248.1 248 c -0.1,0 -0.1,0 -0.2,0 h -0.1 -0.8 -0.2 c -0.1,0 0,0 -0.1,0 0,0 0,0 -0.1,0 h -0.1 v -0.1 c 0,0 0.1,0 0.1,-0.1 h 0.1 c 0.1,0 0,0 0.1,-0.1 z"
   id="path16" />
	<path
   fill="#ffffff"
   d="m 248,467.2 c 0.1,0 0.1,0 0.2,0 h 0.1 c 0.2,0 0.3,0 0.5,0 h 0.1 0.1 v 0 c 0.1,0 0.2,0 0.3,0 h 0.1 1.3 0.1 c 0.1,0.1 0.2,0 0.4,0.1 h 0.4 0.1 c 0.1,0 0.1,0 0.2,0.1 0.1,0.1 0.1,0 0.1,0 h 0.1 c 0,0 0,0 0,0 v 0 0.2 h -0.3 -0.1 c -0.2,0 -0.4,0 -0.6,0 h -0.1 -0.1 -0.2 c -0.2,0 -0.2,0 -0.5,0 -0.1,0 -0.3,0 -0.3,0 h -1 -0.2 -0.9 -0.1 -0.7 -0.1 c -0.1,0 -0.1,0 -0.2,0 -0.1,0 0,0 -0.1,-0.1 h -0.1 v -0.2 c 0,0 0,0 0.1,0 v -0.1 c 0.1,0 0.1,0 0.2,0 h 0.1 0.7 c 0,0 0.1,0 0.1,0 z"
   id="path17" />
	<path
   fill="#ffffff"
   d="m 275.3,467.5 h 0.8 0.3 c 0.2,0 0.1,0 0.4,0 0.1,0 0.2,0.1 0.2,0.1 0,0 0.1,0.1 0.1,0.1 v 0.2 c 0,0 -0.1,0.2 -0.1,0.2 -0.1,0.1 -0.1,0 -0.1,0.1 h -0.1 -1.5 -0.2 c -0.4,-0.1 0,0 -0.5,-0.1 h -0.2 -0.7 l -0.4,-0.2 v -0.1 c 0,0 0.1,-0.1 0.1,-0.1 0,0 0.1,-0.1 0.1,-0.1 0.2,0 0.2,-0.1 0.4,-0.1 h 1.1 z"
   id="path18" />
	<path
   fill="#ffffff"
   d="m 215.9,459.5 c 0.1,0 0,0 0.1,0 0.1,0.1 0.1,0.1 0.2,0.1 l 0.1,0.1 v 0.1 c -0.1,0.1 -0.1,0.1 -0.2,0.1 H 216 c -0.1,0 -0.2,0.1 -0.3,0.1 l -0.2,0.1 H 215 c -0.1,0 -0.2,0 -0.2,0 v 0 c 0,0 -0.1,0 -0.1,-0.1 l -0.1,-0.1 v -0.2 c 0,0 0.1,-0.1 0.1,-0.1 h 0.1 c 0.1,0 0.2,0 0.3,-0.1 h 0.6 z"
   id="path19" />
	<path
   fill="#ffffff"
   d="m 264.9,463.6 c 0.2,0.1 0.2,0.1 0.2,0.1 0.1,0 0.1,0.1 0.1,0.1 v 0.1 c -0.2,0.1 -0.7,0 -0.7,0 l -0.8,-0.1 -0.4,0.1 c -0.2,0 -0.3,0 -0.3,0 v -0.1 c 0,0 0.1,-0.1 0.3,-0.1 h 1.4 c -0.1,-0.1 0.1,-0.1 0.2,-0.1 z"
   id="path20" />
</g>
<ellipse
   fill="none"
   stroke="#cd1719"
   stroke-width="8.30475"
   cx="300.36298"
   cy="297.9379"
   rx="270.73489"
   ry="259.10828"
   id="ellipse20" />
<path
   id="SVGID_x5F_1_x5F_"
   fill="none"
   d="M 462.30561,34.677254 C 606.80829,121.04667 654.14538,307.90359 568.19119,452.40626 481.82178,596.90894 294.96488,644.24602 150.4622,558.29184 5.959515,472.33766 -41.377573,285.06552 44.576611,140.56284 130.53079,-3.93984 317.80295,-51.692163 462.30561,34.677254 Z"
   style="stroke-width:4.15238" />

</svg>
